# xmcd
#
# Track frame offsets: 
#        150
#        8988
#        19798
#        25909
#        44467
#        61115
#        70203
#        80896
#        91718
#        106191
#
# Disc length: 1526 seconds
#
# Revision: 0
# Processed by: cddbd v1.5.2PL0 Copyright (c) Steve Scherf et al.
# Submitted via: ExactAudioCopyFreeDBPlugin 1.0
#
DISCID=7505f40a
DTITLE=Various Artist - American Celebration
DYEAR=2010
DGENRE=Instrumental
TTITLE0=Washington Post
TTITLE1=Semper Fidelis
TTITLE2=Star Spangled Banner
TTITLE3=America the Beautiful
TTITLE4=Stars and Stripes Forever
TTITLE5=You're a Grand Old Flag
TTITLE6=My Country 'Tis of Thee
TTITLE7=Yankee Doodle
TTITLE8=Land of Hope and Glory
TTITLE9=Anchors Aweigh
EXTD=
EXTT0=
EXTT1=
EXTT2=
EXTT3=
EXTT4=
EXTT5=
EXTT6=
EXTT7=
EXTT8=
EXTT9=
PLAYORDER=
